<svg xmlns="http://www.w3.org/2000/svg" viewBox="0 0 64 64">
  <defs>
    <linearGradient id="bg" x1="10" y1="8" x2="54" y2="58" gradientUnits="userSpaceOnUse">
      <stop offset="0" stop-color="#184f3d" />
      <stop offset="1" stop-color="#123c2e" />
    </linearGradient>
    <linearGradient id="coin" x1="22" y1="20" x2="44" y2="42" gradientUnits="userSpaceOnUse">
      <stop offset="0" stop-color="#d7a53a" />
      <stop offset="1" stop-color="#b6841a" />
    </linearGradient>
  </defs>
  <rect x="6" y="6" width="52" height="52" rx="16" fill="url(#bg)" />
  <path
    d="M20 24.5c0-4.694 3.806-8.5 8.5-8.5H41a3 3 0 0 1 3 3v24a5 5 0 0 1-5 5H28.5c-4.694 0-8.5-3.806-8.5-8.5Z"
    fill="#fcf8f1"
    opacity="0.96"
  />
  <path
    d="M24 26a4 4 0 0 1 4-4h12v4H28v16h8a4 4 0 0 0 4-4v-3h4v3a8 8 0 0 1-8 8h-8a4 4 0 0 1-4-4Z"
    fill="#184f3d"
  />
  <circle cx="38" cy="30" r="9" fill="url(#coin)" />
  <path
    d="M38 24.5c-2.88 0-5.1 1.575-5.1 3.825 0 2.025 1.635 3.09 4.35 3.615l1.2.24c1.56.3 2.19.66 2.19 1.305 0 .765-.9 1.305-2.28 1.305-1.56 0-2.625-.57-3.48-1.68l-2.07 1.92c1.11 1.485 2.715 2.355 4.77 2.565V40h1.95v-2.43c2.775-.345 4.47-1.95 4.47-4.125 0-2.085-1.32-3.18-4.2-3.765l-1.17-.24c-1.59-.33-2.37-.645-2.37-1.38 0-.72.78-1.215 2.01-1.215 1.26 0 2.28.45 3.15 1.35l1.86-1.92c-1.095-1.2-2.52-1.92-4.14-2.13V22h-1.95v2.475Z"
    fill="#fcf8f1"
  />
</svg>
